#!OML:ASF E:\acrobat2\Project_11_07_03\Capture day 1\Session 1\Acrobat.ASF
:FULLY-SPECIFIED
:DEGREES
577
root 12.6035 16.4977 14.7244 299.842 -5.10246 2.19341
lowerback -7.33218 -0.190702 5.30461
upperback -10.3738 -0.377432 0.209601
thorax -6.84459 -0.557652 -2.74733
lowerneck -15.1176 -2.39747 -4.63976
upperneck 3.55259 -2.87025 7.33056
head 3.67259 -1.0893 2.79507
rclavicle 4.77083e-015 -1.09332e-015
rhumerus 88.8348 -57.6495 -47.758
rradius 40.3621
rwrist -17.4204
rhand -36.0546 -36.5321
rfingers 7.12502
rthumb -9.16252 -66.313
lclavicle 4.77083e-015 -1.09332e-015
lhumerus 101.031 37.932 50.8601
lradius 37.4448
lwrist 20.1198
lhand -39.8852 -39.4823
lfingers 7.12502
lthumb -12.8571 -9.89832
rfemur 19.5981 -4.4601 2.58545
rtibia 69.7097
rfoot -31.5182 2.8782
rtoes 8.44902
lfemur 18.0667 4.85525 0.891237
ltibia 69.8895
lfoot -16.5158 -25.986
ltoes 16.8445
578
root 12.6203 16.3581 14.9633 300.602 -4.74797 2.35627
lowerback -6.73573 -0.34094 4.71185
upperback -9.50615 -0.554337 0.128358
thorax -6.22763 -0.577629 -2.50569
lowerneck -14.6472 -2.33677 -4.86902
upperneck 4.34358 -2.81793 7.405
head 3.84137 -1.067 2.86143
rclavicle 0 7.85199e-015
rhumerus 89.9792 -55.9917 -48.9521
rradius 39.7239
rwrist -17.0231
rhand -35.8152 -35.6893
rfingers 7.12502
rthumb -8.93144 -65.4803
lclavicle 0 7.85199e-015
lhumerus 99.864 36.4883 50.5997
lradius 36.9215
lwrist 19.3881
lhand -40.224 -40.0605
lfingers 7.12502
lthumb -13.1837 -10.4973
rfemur 18.5527 -4.30269 2.3982
rtibia 71.5784
rfoot -31.8419 2.6917
rtoes 7.71652
lfemur 17.0956 4.74577 -0.231278
ltibia 71.6823
lfoot -17.4433 -25.8517
ltoes 15.939
579
root 12.6358 16.2506 15.1892 301.041 -4.39308 2.56896
lowerback -6.15755 -0.504032 4.11525
upperback -8.53975 -0.753222 0.0416908
thorax -5.50567 -0.61145 -2.26723
lowerneck -14.4981 -2.24488 -5.03858
upperneck 5.56622 -2.73656 7.36004
head 4.18832 -1.02646 2.88358
rclavicle -9.54166e-015 8.94531e-015
rhumerus 91.6421 -54.0331 -50.8567
rradius 39.1462
rwrist -15.955
rhand -35.6115 -34.9317
rfingers 7.12502
rthumb -8.7349 -64.7309
lclavicle -9.54166e-015 8.94531e-015
lhumerus 98.4621 35.114 50.2143
lradius 36.5405
lwrist 18.5574
lhand -40.6393 -40.5124
lfingers 7.12502
lthumb -13.584 -10.9756
rfemur 17.834 -4.08709 2.11372
rtibia 73.2642
rfoot -31.8971 2.83583
rtoes 7.64671
lfemur 16.3621 4.59167 -1.30042
ltibia 73.4154
lfoot -17.6451 -25.752
ltoes 15.6907
580
root 12.6514 16.177 15.3994 301.336 -3.96805 2.85017
lowerback -5.74348 -0.671944 3.46037
upperback -7.53181 -0.966541 -0.0829607
thorax -4.6582 -0.655817 -2.0373
lowerneck -14.6418 -2.15601 -5.17934
upperneck 7.11238 -2.66034 7.24668
head 4.68252 -0.985062 2.88115
rclavicle -2.06736e-014 9.34288e-015
rhumerus 93.4045 -51.8762 -52.9801
rradius 38.6177
rwrist -14.4866
rhand -35.4524 -34.3343
rfingers 7.12502
rthumb -8.58142 -64.1399
lclavicle -2.06736e-014 9.34288e-015
lhumerus 96.9771 33.837 49.6575
lradius 36.0658
lwrist 17.7035
lhand -41.0298 -40.6639
lfingers 7.12502
lthumb -13.9603 -11.1526
rfemur 17.3039 -3.8776 1.64686
rtibia 74.702
rfoot -31.7422 3.21565
rtoes 7.81402
lfemur 15.7098 4.44639 -2.42998
ltibia 75.085
lfoot -17.3816 -25.7529
ltoes 15.9547
581
root 12.6674 16.1371 15.5927 301.624 -3.46291 3.18421
lowerback -5.57811 -0.836484 2.7494
upperback -6.53086 -1.18029 -0.256945
thorax -3.68883 -0.707063 -1.83094
lowerneck -14.9953 -2.09452 -5.27772
upperneck 8.81264 -2.61227 7.04769
head 5.26288 -0.959484 2.84507
rclavicle 0 6.95746e-015
rhumerus 94.8903 -49.6632 -54.9033
rradius 38.1853
rwrist -12.9526
rhand -35.2975 -33.8467
rfingers 7.12502
rthumb -8.4319 -63.6584
lclavicle 0 6.95746e-015
lhumerus 95.4555 32.6882 48.8854
lradius 35.408
lwrist 16.9214
lhand -41.0177 -40.2905
lfingers 7.12502
lthumb -13.9487 -10.7784
rfemur 16.8589 -3.72057 1.01216
rtibia 75.8734
rfoot -31.4251 3.68802
rtoes 7.99711
lfemur 15.0694 4.32774 -3.64199
ltibia 76.6294
lfoot -16.7745 -25.8621
ltoes 16.703
582
root 12.683 16.1296 15.7704 302.009 -2.9507 3.5328
lowerback -5.71467 -0.986469 2.04738
upperback -5.57708 -1.37383 -0.45388
thorax -2.60918 -0.758746 -1.65945
lowerneck -15.3682 -2.07618 -5.35678
upperneck 10.3846 -2.60084 6.77732
head 5.81335 -0.960675 2.781
rclavicle -1.27222e-014 -2.42517e-014
rhumerus 95.944 -47.5392 -56.3301
rradius 37.7849
rwrist -11.6916
rhand -35.1403 -33.3749
rfingers 7.12502
rthumb -8.2802 -63.1926
lclavicle -1.27222e-014 -2.42517e-014
lhumerus 94.0115 31.6601 47.9164
lradius 34.4763
lwrist 16.2508
lhand -40.7594 -39.6205
lfingers 7.12502
lthumb -13.6998 -10.0915
rfemur 16.4043 -3.62344 0.344472
rtibia 76.7778
rfoot -30.9876 4.07753
rtoes 8.06979
lfemur 14.3952 4.2486 -4.83417
ltibia 77.9492
lfoot -15.9921 -25.9335
ltoes 17.3155
